<svg xmlns="http://www.w3.org/2000/svg" width="31" height="27" fill="none"><g style="mix-blend-mode:screen"><path fill="#D33E00" fill-opacity=".8" d="m1.5 11.135-1 1.5 1.5 2.5 8.5 6 6.5-10 2.5-1 3-.5 1-.5h1l.5-2h-.5l-1.5.5-2-.5-2-2-1.5-1.5-2-2-2-.5-2-.5-1.5 1-1.5 1-1.5 1.5-1.5 1.5-1.5 2-1 2z"/><path fill="#D33E00" d="M11.538.089c-1.394.348-2.601 1.23-3.785 2.768-.234.308-.339.389-.692.51a3.4 3.4 0 0 0-.668.316c-.582.397-1.188 1.255-1.536 2.186-.187.494-.244.583-.406.655-.764.349-1.26 1.077-1.627 2.397-.196.712-.215.744-.387.801-.358.105-.763.51-1.021 1.004-.21.405-.277.486-.492.567-.276.105-.701.55-.82.858-.13.332-.139.777-.024 1.157.1.332.487.907.606.907.148 0 .3.202.382.494.162.623.663 1.214 1.221 1.449.205.089.23.121.296.461.243 1.207.95 2.202 1.66 2.34.258.048.278.065.325.324.081.396.387 1.157.64 1.586.424.705 1.27 1.28 1.89 1.28.267 0 .276.008.4.323.067.17.248.526.396.785.85 1.45 1.8 2.42 3.04 3.093 1.38.753 3.293.858 4.935.283 2.548-.89 5.163-3.618 7.072-7.367.816-1.602 1.412-3.027 2.41-5.74 1.484-4.039 2.31-5.925 3.374-7.73a23 23 0 0 1 1.78-2.631c.496-.623.61-1.052.377-1.45-.148-.25-.325-.266-.817-.088-.854.307-1.799 1.06-3.187 2.55-1.083 1.157-1.971 1.805-2.983 2.161-.563.203-1.866.203-2.434 0-1.116-.396-2.17-1.303-3.402-2.914C16.753 1.708 15.36.583 14.019.162c-.563-.179-1.909-.219-2.482-.073m2.051 1.174c1.246.259 2.468 1.165 3.704 2.752 1.35 1.732 2.319 2.688 3.216 3.19 1.255.696 2.81.793 3.937.242.229-.113.425-.186.439-.17.01.025-.043.065-.115.09a4 4 0 0 0-.515.364c-.864.696-1.064.817-1.78 1.076-.434.162-.649.187-1.441.187-.888-.009-.96-.017-1.527-.268-.711-.307-1.122-.631-1.885-1.505-.315-.365-.606-.656-.644-.656-.039-.008-.067-.049-.062-.105.01-.049-.015-.073-.053-.049s-.081 0-.1-.048c-.048-.138-.215.145-.215.364a.57.57 0 0 1-.08.291c-.073.09-.077.09-.025-.008.067-.137.077-.275.01-.202-.024.024-.048.016-.048-.033 0-.04.024-.105.048-.13.076-.08.052-.315-.043-.42-.09-.097-.148-.065-.148.073 0 .04.024.048.048.024.071-.073.143.032.11.162-.034.154-.139.154-.177 0-.014-.065-.053-.121-.086-.113q-.072 0 0 .048.066.036.01.146c-.063.13-.03.494.042.47.072-.033.043.218-.057.46-.062.147-.081.163-.081.066 0-.073.033-.17.076-.21.062-.058.062-.09-.014-.252s-.095-.17-.181-.056c-.096.121-.096.121.014.072.057-.024.105-.008.105.04 0 .041-.053.098-.12.114-.066.024-.119.008-.119-.032s-.024-.049-.052-.016a.3.3 0 0 1-.153.064c-.1.008-.181.21-.086.21.029 0 .053-.032.053-.064s.043-.065.095-.073.096.033.096.097c0 .073-.029.098-.072.073-.038-.032-.071-.008-.071.04 0 .05.023.09.047.09.029 0 .048.056.048.121 0 .09-.053.122-.172.122h-.176l.128.202c.091.146.105.202.058.202-.043 0-.077.057-.077.122q-.001.111-.08.065c-.053-.033-.058-.065-.025-.09.072-.04.077-.234 0-.307q-.044-.048-.024.024c.02.049 0 .13-.038.186-.095.138-.09.219.024.268.053.024.096.08.096.137 0 .049-.024.065-.058.024-.105-.105-.563-.08-.563.033 0 .17.1.202.172.057.057-.138.062-.138.038-.017-.024.114-.004.146.072.146.057 0 .1-.04.1-.08 0-.05.033-.082.076-.082.067 0 .067.016 0 .122-.038.064-.1.121-.143.121-.038 0-.086.04-.105.097-.024.065-.01.073.043.04.096-.064.105 0 .02.13-.115.178-.182.154-.149-.065.024-.153.01-.202-.047-.202-.039 0-.062.049-.048.105.033.154-.401.478-.51.38-.058-.056-.091-.048-.11.041-.02.09-.053.105-.148.04-.153-.096-.167.057-.01.163.057.04.09.072.072.072-.067.017-.082.017-.234.09-.115.056-.143.048-.124-.033.038-.154-.153-.332-.225-.202-.028.048-.028.073-.004.056.028-.024.071 0 .105.057.047.081.043.13-.01.202-.052.073-.072.073-.072.008 0-.048-.047-.08-.104-.08-.082.008-.091.016-.024.048.1.04.11.186.01.186-.039 0-.072.057-.072.122q-.002.111-.081.065c-.1-.065-.268-.349-.206-.349.029 0 .048-.056.048-.121 0-.105-.02-.097-.095.024a.39.39 0 0 0-.067.284c.014.08.005.137-.024.137s-.038.057-.02.122c.015.08 0 .121-.037.105-.038-.016-.067.04-.067.138-.005.089-.02.21-.038.267a.3.3 0 0 0-.01.178c.014.04.01.08-.019.08-.024 0-.053-.048-.067-.104-.014-.073-.033-.073-.095.008-.043.064-.105.08-.134.048-.038-.032-.043-.024-.024.04a.09.09 0 0 0 .124.05c.048-.025.1-.009.12.04.014.04.004.08-.024.08-.029 0-.038.041-.024.082.019.048.048.064.067.04.024-.016.028.057.014.162-.01.113-.038.202-.057.202-.024 0-.029-.073-.014-.162.028-.194-.058-.218-.12-.032-.028.081-.067.113-.105.073-.043-.049-.033-.09.043-.162l.11-.097-.129-.138c-.072-.08-.138-.121-.157-.097-.015.024 0 .049.028.049.034 0 .053.048.043.097-.014.154-.367.316-.472.218-.062-.056-.086-.056-.077.017.01.056-.052.178-.138.267-.138.162-.243.453-.158.453.02 0 .048.073.063.162s0 .146-.034.138c-.029-.008-.057.105-.067.242-.014.276-.076.348-.124.162-.014-.048-.024.098-.014.332.005.227-.005.421-.02.421-.013 0-.052.3-.085.664-.072.785-.315 2.453-.391 2.647q-.063.172-.02-.032a25.7 25.7 0 0 0 .406-4.493c0-2.388-.32-4.55-.93-6.314-.325-.923-1.026-2.13-1.47-2.518l-.325-.291.191-.211c.869-.971 2.114-1.78 3.078-2 .434-.089 1.336-.089 1.794 0m15.009 2.67c-.015.041-.058.082-.086.082-.034 0-.029-.032.014-.081.09-.097.11-.097.072 0M7.939 4.51c1.108.34 1.99 2.46 2.358 5.634.124 1.069.172 2.817.105 3.764-.053.713-.244 2.202-.277 2.154-.01-.017.029-.373.081-.794.086-.712.177-2.517.11-2.282-.048.178-.115.016-.115-.284 0-.486-.047-.25-.095.47-.057.825-.243 1.959-.353 2.137a.5.5 0 0 0-.077.202c0 .04-.014.13-.033.21-.02.098-.014.122.024.082.081-.081.071-.008-.062.437-.11.372-.196.55-.143.3a.4.4 0 0 0-.024-.22c-.038-.104-.062-.104-.186.025-.158.154-.244.178-.244.057 0-.049.034-.081.072-.081s.071-.04.071-.081c0-.049.024-.081.053-.081.024 0 .033.04.014.097q-.03.084.02.032c.028-.032.042-.105.023-.178-.024-.105-.033-.105-.105 0a.18.18 0 0 1-.205.073c-.114-.04-.124-.024-.1.146.014.113.005.154-.02.105-.042-.097-.195-.097-.29 0-.067.073-.077-.049-.01-.162.029-.048.014-.08-.043-.08-.052 0-.081.04-.067.105.015.056-.01.105-.057.105-.043 0-.067-.033-.052-.065.01-.032-.072-.113-.191-.17-.115-.057-.21-.138-.21-.178a.073.073 0 0 0-.072-.073c-.038 0-.071-.032-.071-.081 0-.04-.034-.057-.072-.032-.038.032-.072.008-.072-.04 0-.05.03-.09.062-.09.03-.008.01-.073-.047-.154-.058-.08-.09-.178-.072-.202q.02-.048-.052 0c-.096.057-.105.162-.02.218.034.025.03.05-.023.05-.043.007-.096-.066-.11-.155s-.053-.162-.076-.162c-.029 0-.034-.04-.02-.089.034-.089-.104-.307-.19-.307-.024 0-.01.032.038.08.086.09.11.235.038.235-.024 0-.076-.056-.12-.121a.4.4 0 0 0-.09-.121c-.014 0-.062.194-.11.42-.1.535-.339 1.441-.377 1.441-.014 0 .015-.137.067-.307.153-.51.334-1.635.387-2.405.21-3.173-.31-6.07-1.294-7.196l-.233-.267.2-.397c.444-.882.997-1.498 1.532-1.692.377-.138.477-.146.825-.032m8.342 2.307c.02.08.005.113-.029.097-.071-.04-.11-.227-.047-.227.024 0 .062.057.076.13m-.339.826c-.086.04-.129-.025-.086-.138.02-.057.048-.057.096.016.052.081.052.105-.01.122m-10.861.186c.687.566 1.212 3.197 1.069 5.375-.038.64-.038.64-.053.202-.01-.242-.024-.364-.033-.267-.01.105-.043.187-.067.187-.057 0-.234-.308-.234-.413 0-.04-.024-.057-.047-.033-.048.049-.282-.202-.444-.486-.043-.064-.11-.097-.153-.072-.057.04-.076.016-.062-.09.01-.08-.02-.161-.057-.178-.062-.032-.062-.024 0 .05.062.08.062.088 0 .088-.115 0-.205-.138-.167-.243.024-.065.01-.08-.053-.048-.133.064-.658-.235-.677-.389-.01-.073-.034-.13-.053-.13s-.019.17 0 .381c.02.219.034.753.034 1.198l-.005.81-.034-.972c-.047-1.311-.29-2.525-.591-2.946-.105-.146-.096-.3.028-.648.32-.899.826-1.522 1.25-1.538.077-.008.234.065.349.162m10.818.073c-.138.097-.181.226-.114.364.052.113.038.146-.12.227-.095.056-.095.056 0-.065.082-.113.086-.138.024-.203-.038-.04-.086-.08-.105-.08-.024 0-.038-.041-.038-.09 0-.056.043-.072.1-.048s.105 0 .124-.073c.015-.065.072-.113.13-.105h.1zm.267.243c0 .04-.01.08-.019.08-.014 0-.038-.04-.052-.08-.014-.05-.005-.081.019-.081.029 0 .052.032.052.08m-.715.89c0 .04-.034.08-.077.08-.038 0-.057-.04-.043-.08.015-.049.048-.081.077-.081.024 0 .043.032.043.081m-.015.364c0 .146-.11.162-.157.025-.02-.049-.014-.065.019-.033.028.024.062.016.081-.032.043-.114.057-.105.057.04m-.248.033a.14.14 0 0 1-.024.13c-.024.023-.047-.009-.047-.074 0-.145.028-.17.071-.056m-.463.25c-.033.082-.066.146-.071.13-.029-.048.043-.291.086-.291.023 0 .019.073-.015.162m.2-.08c0 .04-.009.08-.018.08-.015 0-.039-.04-.053-.08-.014-.049-.005-.081.02-.081.028 0 .052.032.052.08m-.572.162c0 .089-.029.161-.067.161q-.063 0-.047.219c.01.13.004.162-.01.081-.014-.073-.043-.138-.067-.138s-.01-.113.029-.242c.086-.276.162-.316.162-.081m.382.194c0 .024-.02.065-.048.089-.024.024-.048.008-.048-.032 0-.049.024-.09.048-.09.029 0 .048.017.048.033m-.692.13c.014.04-.005.08-.048.08s-.062-.04-.048-.08c.015-.05.039-.082.048-.082s.034.033.048.081m-.334.161c-.048.09-.096.146-.11.122-.033-.049.086-.284.148-.284.024 0 .01.073-.038.162m-.296.195c.09-.049.095-.04.038.072-.033.073-.081.122-.1.098-.02-.017-.076.016-.124.08-.115.146-.181.154-.148.017a.4.4 0 0 0-.014-.219.3.3 0 0 1 .014-.202c.038-.065.071-.057.138.056.062.106.124.138.196.098m1.48-.219a.22.22 0 0 1-.144 0c-.048-.024-.019-.04.057-.04.082 0 .115.016.086.04m-1.017.154c0 .065-.02.097-.048.073a.2.2 0 0 1-.048-.13c0-.04.024-.073.048-.073.029 0 .048.057.048.13m.286-.049c0 .04-.01.081-.019.081-.014 0-.038-.04-.052-.08-.015-.05-.005-.082.019-.082.028 0 .052.033.052.081m-.405.316c-.039.113-.12.113-.12 0 0-.04.024-.057.048-.032.029.024.048.008.048-.049s.014-.081.028-.049c.015.025.015.081-.004.13m.262-.121c0 .024-.02.064-.048.089-.024.024-.047.008-.047-.033 0-.048.023-.089.047-.089.029 0 .048.016.048.033m.143.129c0 .04-.019.081-.048.081-.023 0-.047-.04-.047-.081 0-.049.024-.08.047-.08.03 0 .048.031.048.08m-1.145.17c.038.105.081.146.133.113.063-.04.067-.024.024.049s-.08.065-.162-.04c-.062-.073-.09-.13-.067-.13.029 0 .015-.04-.024-.081-.042-.049-.047-.081-.014-.081.034 0 .081.073.11.17m.32.032c0 .065-.02.122-.043.122-.048 0-.053-.114-.005-.186.043-.081.048-.073.048.064M2.375 10.84c0 .016-.071.114-.153.219l-.157.186.114-.21c.1-.187.196-.284.196-.195m11.167.17c0 .024-.02.065-.048.09-.024.024-.048.007-.048-.033 0-.049.024-.09.048-.09.029 0 .048.017.048.033m-.54.251c-.019.065-.057.122-.09.114q-.072 0 0-.049c.028-.016.057-.097.057-.17 0-.065.014-.105.029-.073.019.024.019.105.005.178m-.696.55c-.048.073-.053.065-.024-.048.014-.08.043-.121.057-.097s0 .089-.033.146m-.2.025c-.044.089-.072.089-.12.024-.052-.073-.067-.065-.067.008 0 .065-.014.09-.028.057-.053-.089.019-.178.143-.186.105-.016.12.008.071.097m-.373.34c-.029.016-.043.065-.029.105.02.04-.004.049-.042.025-.096-.065-.096-.073.004-.243.062-.106.086-.114.105-.025.01.057-.004.122-.038.138m.635-.09c.014.058.005.122-.024.147-.024.032-.057 0-.067-.065-.028-.122-.31-.09-.31.032 0 .04-.033.049-.076.016-.072-.04-.072-.064-.01-.137.1-.122.458-.122.487.008m-10.919.333c.13.146.225.858.134 1.012-.043.073-.783-.478-.783-.583.005-.308.482-.623.65-.43m10.423.016c0 .04-.01.081-.02.081-.014 0-.038-.04-.052-.081-.014-.049-.005-.08.02-.08.028 0 .052.031.052.08m-.105.202c-.015.025-.043-.016-.058-.097-.028-.113-.024-.121.024-.048.034.056.048.121.034.145m12.693.972c-.062.154-.129.283-.152.283-.039 0 0-.113.157-.429.11-.227.11-.154-.005.146m-18.377.664c-.014.08-.024.016-.024-.138s.01-.219.024-.146c.01.081.01.21 0 .284m18.1.097a.7.7 0 0 1-.1.218c-.028.025-.014-.04.029-.162.095-.242.143-.283.072-.056m-18.148.348c-.014.065-.028.04-.028-.049-.005-.089.01-.137.024-.105.014.024.019.097.004.154m4.057 1.619c-.015.065-.03.04-.03-.049-.004-.089.01-.137.025-.105.014.024.019.097.005.154m-1.418.397c0 .048-.019.056-.047.032a.23.23 0 0 1-.048-.13c0-.048.024-.056.048-.032.028.024.047.09.047.13m2.01 1.181c-.058.162-.067.114-.024-.097.018-.073.042-.113.052-.089.014.016 0 .106-.029.186m-.292.996c-.028.09-.062.162-.076.162-.01 0 0-.073.028-.162.03-.089.063-.162.077-.162.01 0 0 .073-.029.162"/><path fill="#fff" stroke="#D33E00" stroke-width=".044" d="M14.273 8.772c.31.312.84.49 1.364.308l.105-.04a.8.8 0 0 0 .411-.476c.073-.208.068-.437-.038-.607-.166-.286-.497-.477-.852-.544-.355-.066-.728-.008-.972.194-.216.18-.302.389-.294.592.008.205.11.407.276.573Z"/><path fill="#fff" stroke="#D33E00" stroke-width=".044" d="M15.133 10.74c.563.011 1.107-.027 1.519-.118l.168-.042c.396-.122.822-.32 1.18-.536.313-.19.572-.393.714-.568l.053-.074c.07-.113.122-.196.153-.258a.3.3 0 0 0 .027-.076q.005-.028-.004-.042a.1.1 0 0 0-.034-.028.4.4 0 0 0-.082-.023l-.309-.041a7 7 0 0 1-.41-.069 3 3 0 0 1-.177-.04l-.125-.039q-.1-.034-.263.034a1.4 1.4 0 0 0-.364.243c-.425.372-1.075.572-1.774.596a4.23 4.23 0 0 1-2.081-.458c-.63-.33-1.097-.426-1.524-.307l-.18.063c-.176.08-.247.188-.242.307.005.122.09.266.25.416.318.3.919.612 1.683.826.514.14 1.178.22 1.822.233ZM11.27 20.896c.531.079 1.055.11 1.383.061 1.101-.171 2.162-.772 2.711-1.517l.103-.15c.117-.195.205-.315.298-.378a.33.33 0 0 1 .234-.053l.096.018c2.78.672 5.036-.015 5.987-1.8.211-.4.325-.948.338-1.51s-.076-1.137-.266-1.592c-.57-1.385-2.152-2.323-3.898-2.324-.433 0-.983.082-1.426.192a3.5 3.5 0 0 0-.553.178.8.8 0 0 0-.159.09c-.037.029-.05.052-.05.069 0 .04-.011.103-.03.18-.018.076-.046.17-.078.272-.065.206-.153.453-.247.695-.094.243-.194.481-.281.67a4 4 0 0 1-.12.241.7.7 0 0 1-.091.136l-.155.12a.4.4 0 0 1-.129.06.17.17 0 0 1-.11-.006.2.2 0 0 1-.08-.081q-.063-.113-.079-.363a4 4 0 0 1-.009-.288l.009-.365c.03-.51.04-.769-.016-.968-.055-.197-.176-.337-.42-.606a4.4 4.4 0 0 0-.476-.427 2.4 2.4 0 0 0-.43-.278c-.307-.12-.8-.194-1.3-.211s-1.001.023-1.322.126c-.602.183-1.057.48-1.33.834-.272.353-.363.761-.232 1.17.123.373.36.602.678.684.32.083.723.018 1.177-.208.261-.132.414-.312.456-.51.037-.172-.01-.364-.147-.559l-.066-.084a2 2 0 0 1-.113-.144.14.14 0 0 1-.023-.05.1.1 0 0 1 .002-.026.04.04 0 0 1 .018-.02.1.1 0 0 1 .053-.013q.03 0 .079.007l.27.05c.725.136 1.115.346 1.37.745.163.264.237.467.199.645-.04.18-.19.328-.456.488-.184.11-.316.176-.429.198a.4.4 0 0 1-.237-.024l-.079-.04a1.2 1.2 0 0 0-.308-.085 3 3 0 0 0-.414-.043 2.6 2.6 0 0 0-.387.012 1 1 0 0 0-.14.027.2.2 0 0 0-.08.038l-.003.002-.018.026a.1.1 0 0 0 .003.049c.011.04.042.088.092.135a.6.6 0 0 1 .072.083q.01.014.014.032a.04.04 0 0 1-.002.02.04.04 0 0 1-.014.015.1.1 0 0 1-.034.009l-.043-.004a2 2 0 0 1-.132-.032q-.054-.015-.088-.02l.013.008q.052.034.151.094c.135.088.22.174.27.314.05.139.065.329.065.622 0 .223.01.396.043.53a.5.5 0 0 0 .189.3c.098.072.239.121.44.158.2.036.46.058.795.08.478.024.746.046.937.108.194.063.308.168.478.352.23.253.345.494.34.756-.003.262-.123.543-.353.874-.221.32-.408.518-.64.637-.23.119-.505.156-.896.156-.784 0-1.497-.209-2.003-.604-.37-.276-.597-.519-.733-.845s-.181-.733-.189-1.339c-.007-.581-.048-.956-.147-1.185a.5.5 0 0 0-.192-.24.57.57 0 0 0-.301-.07c-.133 0-.272.065-.407.182a1.8 1.8 0 0 0-.374.48 2.96 2.96 0 0 0-.376 1.396c0 .587.281 1.281.714 1.892.38.535.873 1.005 1.392 1.285l.224.107c.35.146.886.274 1.418.353Zm7.301-3.12c-.464.098-.95.104-1.352-.007a4 4 0 0 1-1.082-.514c-.336-.224-.623-.483-.773-.719a2 2 0 0 1-.115-.204q-.038-.081-.019-.15.022-.066.104-.124.08-.06.23-.141v.001c.223-.136.754-.37 1.181-.517v.001c.213-.079.421-.174.586-.263q.125-.069.209-.128a.4.4 0 0 0 .108-.102c.229-.347.157-.773-.142-.998a1.2 1.2 0 0 1-.212-.185.28.28 0 0 1-.077-.167.22.22 0 0 1 .066-.158.6.6 0 0 1 .082-.074l.113-.077c.197-.126.504-.174.841-.154.338.02.71.11 1.037.263 1.488.693 1.724 2.793.446 3.868l-.126.093a3.1 3.1 0 0 1-1.105.455Z"/></g></svg>