<svg width="45" height="24" viewBox="0 0 45 24" fill="none" xmlns="http://www.w3.org/2000/svg">
<path d="M0.457947 10.5458L4.18442 8.68261L6.4203 6.07408L11.6374 2.72026L16.8544 0.857022L20.2082 0.484375L25.7979 3.46555L31.015 6.07408H37.35L28.4065 18.7441L9.40147 17.2535L4.55706 14.2723L0.457947 10.5458Z" fill="#802000"/>
<path d="M16.748 0.0762692C14.7253 0.374139 12.9727 1.1292 11.2547 2.44537C10.9153 2.70861 10.7629 2.77788 10.2503 2.88179C9.91779 2.95106 9.48137 3.06882 9.28048 3.15195C8.43536 3.49138 7.55561 4.22567 7.04992 5.0223C6.77976 5.44486 6.69664 5.52105 6.46111 5.5834C5.35276 5.88127 4.63233 6.50472 4.09893 7.63385C3.81492 8.24345 3.78721 8.27116 3.53783 8.31965C3.01829 8.4097 2.42948 8.75606 2.05541 9.17862C1.75061 9.52498 1.65363 9.59425 1.3419 9.66352C0.940126 9.75358 0.323605 10.1346 0.150425 10.3978C-0.0366101 10.6818 -0.0504645 11.0628 0.115788 11.3884C0.26126 11.6724 0.822364 12.1642 0.995544 12.1642C1.21029 12.1642 1.43196 12.3374 1.54972 12.5868C1.78525 13.1202 2.5126 13.6259 3.32309 13.8268C3.62096 13.903 3.65559 13.9307 3.75257 14.2216C4.10586 15.2538 5.13109 16.1058 6.16324 16.2236C6.53731 16.2652 6.56502 16.279 6.63429 16.5007C6.75205 16.8401 7.19539 17.4913 7.56254 17.8584C8.17906 18.4611 9.40517 18.9529 10.3057 18.9529C10.6936 18.9529 10.7075 18.9598 10.8876 19.23C10.9846 19.3755 11.2478 19.6803 11.4626 19.9019C12.6956 21.1419 14.0741 21.9732 15.8752 22.5481C17.8771 23.1924 20.655 23.2824 23.0379 22.7906C26.737 22.0286 30.5332 19.6941 33.304 16.4868C34.4886 15.1152 35.3545 13.896 36.8023 11.5754C38.9566 8.11876 40.155 6.50472 41.6998 4.95995C42.6003 4.05941 43.4108 3.35977 44.2837 2.70861C45.0041 2.17521 45.1703 1.80807 44.8309 1.46864C44.6162 1.25389 44.3599 1.24004 43.6464 1.39244C42.4064 1.65567 41.0348 2.2999 39.019 3.57451C37.4465 4.5651 36.158 5.11928 34.6895 5.42407C33.8721 5.59725 31.9809 5.59725 31.1566 5.42407C29.5356 5.08464 28.0047 4.30879 26.2175 2.93028C24.3195 1.46171 22.2967 0.498829 20.3502 0.138614C19.5328 -0.0137845 17.5793 -0.0484206 16.748 0.0762692ZM19.7267 1.08071C21.5347 1.30238 23.3081 2.07823 25.1022 3.43596C27.0626 4.91839 28.4688 5.7358 29.7712 6.16528C31.593 6.76102 33.8513 6.84415 35.4861 6.3731C35.8186 6.27612 36.1026 6.21378 36.1234 6.22763C36.1373 6.24841 36.0611 6.28305 35.9572 6.30383C35.8532 6.33154 35.5138 6.47008 35.209 6.61555C33.9552 7.21129 33.6643 7.3152 32.6252 7.53687C31.9948 7.67542 31.6831 7.6962 30.5332 7.6962C29.2447 7.68927 29.1408 7.68234 28.3164 7.4676C27.2843 7.20437 26.6886 6.92728 25.5802 6.17914C25.123 5.86741 24.7004 5.61804 24.645 5.61804C24.5896 5.61111 24.548 5.57647 24.555 5.52798C24.5688 5.48642 24.5342 5.46564 24.4788 5.48642C24.4234 5.5072 24.361 5.48642 24.3333 5.44486C24.264 5.32709 24.0216 5.56954 24.0216 5.75658C24.0216 5.84663 23.9662 5.95747 23.9038 6.00596C23.7999 6.08216 23.793 6.08216 23.8692 5.99903C23.9662 5.88127 23.98 5.76351 23.883 5.82585C23.8484 5.84663 23.8138 5.83971 23.8138 5.79814C23.8138 5.76351 23.8484 5.70809 23.883 5.68731C23.9939 5.61804 23.9592 5.41715 23.8207 5.32709C23.6891 5.24397 23.6059 5.27167 23.6059 5.38944C23.6059 5.42407 23.6406 5.431 23.6752 5.41022C23.7791 5.34787 23.883 5.43793 23.8345 5.54876C23.7861 5.68038 23.6337 5.68038 23.5782 5.54876C23.5575 5.49335 23.502 5.44486 23.4535 5.45178C23.3843 5.45178 23.3843 5.46564 23.4535 5.49335C23.5159 5.51413 23.5228 5.55569 23.4674 5.61804C23.3774 5.72887 23.4258 6.04059 23.5297 6.01981C23.6337 5.9921 23.5921 6.20685 23.4466 6.41466C23.3566 6.53935 23.3289 6.55321 23.3289 6.47008C23.3289 6.40774 23.3774 6.32461 23.4397 6.28997C23.5297 6.24148 23.5297 6.21378 23.4189 6.07523C23.3081 5.93669 23.2804 5.92976 23.1557 6.02674C23.0171 6.13065 23.0171 6.13065 23.1765 6.08909C23.2596 6.0683 23.3289 6.08216 23.3289 6.12372C23.3289 6.15836 23.2527 6.20685 23.1557 6.2207C23.0587 6.24148 22.9825 6.22763 22.9825 6.19299C22.9825 6.15836 22.9479 6.15143 22.9063 6.17914C22.8578 6.20685 22.7608 6.22763 22.6846 6.23456C22.5392 6.24148 22.4214 6.41466 22.5599 6.41466C22.6015 6.41466 22.6361 6.38696 22.6361 6.35925C22.6361 6.33154 22.6985 6.30383 22.7747 6.2969C22.8509 6.28997 22.9132 6.32461 22.9132 6.38003C22.9132 6.44237 22.8717 6.46315 22.8093 6.44237C22.7539 6.41466 22.7054 6.43545 22.7054 6.47701C22.7054 6.51857 22.74 6.55321 22.7747 6.55321C22.8162 6.55321 22.844 6.6017 22.844 6.65712C22.844 6.73332 22.7678 6.76102 22.5946 6.76102H22.3383L22.5253 6.9342C22.6569 7.05889 22.6777 7.10738 22.6084 7.10738C22.5461 7.10738 22.4976 7.15588 22.4976 7.21129C22.4976 7.27364 22.456 7.29442 22.3798 7.26671C22.3036 7.239 22.2967 7.21129 22.3452 7.19051C22.4491 7.15588 22.456 6.98962 22.3452 6.92728C22.3036 6.89957 22.2898 6.9065 22.3106 6.94806C22.3383 6.98962 22.3106 7.05889 22.2551 7.10738C22.1166 7.22515 22.1235 7.29442 22.2898 7.33598C22.366 7.35676 22.4283 7.40525 22.4283 7.45375C22.4283 7.49531 22.3937 7.50916 22.3452 7.47453C22.1928 7.38447 21.5278 7.40525 21.5278 7.50224C21.5278 7.64771 21.6733 7.67542 21.7772 7.55073C21.8603 7.43296 21.8672 7.43296 21.8326 7.53687C21.7979 7.63385 21.8257 7.66156 21.9365 7.66156C22.0196 7.66156 22.082 7.62693 22.082 7.59229C22.082 7.55073 22.1305 7.52302 22.1928 7.52302C22.2898 7.52302 22.2898 7.53687 22.1928 7.62693C22.1374 7.68234 22.0473 7.73083 21.985 7.73083C21.9296 7.73083 21.8603 7.76547 21.8326 7.81396C21.7979 7.86938 21.8187 7.8763 21.8949 7.8486C22.0335 7.79318 22.0473 7.8486 21.9226 7.95943C21.7564 8.11183 21.6594 8.09105 21.7079 7.90401C21.7425 7.7724 21.7217 7.73083 21.6386 7.73083C21.5832 7.73083 21.5486 7.7724 21.5693 7.82089C21.6178 7.9525 20.9875 8.22959 20.8281 8.14647C20.745 8.09798 20.6965 8.1049 20.6688 8.1811C20.6411 8.2573 20.5926 8.27116 20.4541 8.21574C20.2324 8.13261 20.2116 8.26423 20.4402 8.35428C20.5233 8.38892 20.5718 8.41663 20.5441 8.41663C20.4471 8.43048 20.4264 8.43048 20.2047 8.49283C20.0384 8.54132 19.9969 8.53439 20.0246 8.46512C20.08 8.3335 19.8029 8.1811 19.699 8.29194C19.6574 8.3335 19.6574 8.35428 19.6921 8.34043C19.7336 8.31965 19.796 8.34043 19.8445 8.38892C19.9137 8.45819 19.9068 8.49975 19.8306 8.5621C19.7544 8.62444 19.7267 8.62444 19.7267 8.56903C19.7267 8.52746 19.6574 8.49975 19.5743 8.49975C19.4566 8.50668 19.4427 8.51361 19.5397 8.54132C19.6851 8.57595 19.699 8.70064 19.5535 8.70064C19.4981 8.70064 19.4496 8.74913 19.4496 8.80455C19.4496 8.8669 19.4081 8.88768 19.3319 8.85997C19.1864 8.80455 18.9439 8.5621 19.034 8.5621C19.0756 8.5621 19.1033 8.51361 19.1033 8.45819C19.1033 8.36814 19.0756 8.37506 18.9647 8.47897C18.8747 8.5621 18.84 8.65215 18.8677 8.72142C18.8885 8.7907 18.8747 8.83919 18.8331 8.83919C18.7915 8.83919 18.7777 8.88768 18.8054 8.94309C18.8262 9.01237 18.8054 9.047 18.75 9.03315C18.6946 9.01929 18.653 9.06778 18.653 9.15091C18.6461 9.22711 18.6253 9.33102 18.5976 9.37951C18.5629 9.42107 18.5629 9.49034 18.5837 9.53191C18.6045 9.56654 18.5976 9.60118 18.556 9.60118C18.5214 9.60118 18.4798 9.55962 18.459 9.51113C18.4383 9.44878 18.4105 9.44878 18.3205 9.51805C18.2581 9.57347 18.1681 9.58732 18.1265 9.55962C18.0711 9.53191 18.0642 9.53883 18.0919 9.59425C18.1196 9.63581 18.2027 9.6566 18.272 9.63581C18.3413 9.61503 18.4175 9.62889 18.4452 9.67045C18.466 9.70509 18.4521 9.73972 18.4105 9.73972C18.369 9.73972 18.3551 9.77436 18.3759 9.80899C18.4036 9.85056 18.4452 9.86441 18.4729 9.84363C18.5075 9.82978 18.5145 9.89212 18.4937 9.98218C18.4798 10.0792 18.4383 10.1554 18.4105 10.1554C18.3759 10.1554 18.369 10.093 18.3898 10.0168C18.4313 9.85056 18.3066 9.82978 18.2166 9.9891C18.175 10.0584 18.1196 10.0861 18.0642 10.0514C18.0018 10.0099 18.0157 9.97525 18.1265 9.9129L18.2859 9.82978L18.0988 9.71201C17.9949 9.64274 17.8979 9.60811 17.8702 9.62889C17.8494 9.64967 17.8702 9.67045 17.9118 9.67045C17.9603 9.67045 17.988 9.71201 17.9741 9.75358C17.9533 9.88519 17.4407 10.0237 17.2883 9.94061C17.1983 9.89212 17.1636 9.89212 17.1775 9.95447C17.1914 10.003 17.1013 10.1069 16.9766 10.1831C16.7757 10.3216 16.6233 10.571 16.748 10.571C16.7757 10.571 16.8173 10.6333 16.8381 10.7095C16.8588 10.7857 16.8381 10.8342 16.7896 10.8273C16.748 10.8204 16.7064 10.9173 16.6926 11.0351C16.6718 11.2706 16.5818 11.333 16.5125 11.1737C16.4917 11.1321 16.4779 11.2568 16.4917 11.4577C16.4986 11.6516 16.4848 11.8179 16.464 11.8179C16.4432 11.8179 16.3878 12.0742 16.3393 12.3859C16.2354 13.0579 15.8821 14.4849 15.7713 14.6511C15.7089 14.7481 15.702 14.7412 15.7436 14.6234C16.1107 13.4735 16.3324 12.0465 16.3324 10.7788C16.3324 8.73528 15.8683 6.88571 14.9816 5.37558C14.5105 4.58588 13.4922 3.55373 12.848 3.22122L12.3769 2.97184L12.654 2.79173C13.9148 1.96047 15.7228 1.26775 17.1221 1.08071C17.7525 1.00451 19.0617 1.00451 19.7267 1.08071ZM41.5128 3.36669C41.492 3.40133 41.4297 3.43596 41.3881 3.43596C41.3396 3.43596 41.3465 3.40826 41.4089 3.36669C41.5405 3.28357 41.5682 3.28357 41.5128 3.36669ZM11.5249 3.85852C13.132 4.14947 14.4135 5.9644 14.9469 8.67986C15.127 9.59425 15.1963 11.0905 15.0993 11.901C15.0231 12.5106 14.7461 13.7852 14.6976 13.7436C14.6837 13.7298 14.7391 13.425 14.8153 13.0648C14.94 12.4552 15.0716 10.9104 14.9746 11.1113C14.9054 11.2637 14.8084 11.1252 14.8084 10.8689C14.8084 10.4532 14.7391 10.6541 14.6699 11.2706C14.5867 11.9772 14.3166 12.947 14.1572 13.0994C14.0949 13.1618 14.0464 13.238 14.0464 13.2726C14.0464 13.3072 14.0256 13.3834 13.9979 13.4527C13.9702 13.5358 13.9771 13.5566 14.0325 13.522C14.1503 13.4527 14.1365 13.5151 13.9425 13.896C13.7832 14.2147 13.6585 14.3671 13.7347 14.1524C13.7555 14.1108 13.7416 14.0207 13.7 13.9653C13.6446 13.8753 13.61 13.8753 13.4299 13.9861C13.2013 14.1177 13.0766 14.1385 13.0766 14.0346C13.0766 13.993 13.1251 13.9653 13.1805 13.9653C13.2359 13.9653 13.2844 13.9307 13.2844 13.896C13.2844 13.8545 13.319 13.8268 13.3606 13.8268C13.3952 13.8268 13.4091 13.8614 13.3814 13.9099C13.3537 13.9584 13.3606 13.9653 13.4091 13.9376C13.4507 13.9099 13.4714 13.8476 13.4437 13.7852C13.4091 13.6952 13.3952 13.6952 13.2913 13.7852C13.229 13.8406 13.1043 13.8683 12.9935 13.8476C12.8272 13.8129 12.8134 13.8268 12.848 13.9722C12.8688 14.0692 12.8549 14.1039 12.8203 14.0623C12.7579 13.9792 12.5363 13.9792 12.3977 14.0623C12.3007 14.1246 12.2869 14.0207 12.3839 13.9238C12.4254 13.8822 12.4047 13.8545 12.3215 13.8545C12.2453 13.8545 12.2038 13.8891 12.2245 13.9445C12.2453 13.993 12.2107 14.0346 12.1414 14.0346C12.0791 14.0346 12.0444 14.0069 12.0652 13.9792C12.0791 13.9515 11.9613 13.8822 11.7881 13.8337C11.6219 13.7852 11.4833 13.7159 11.4833 13.6813C11.4833 13.6467 11.4348 13.619 11.3794 13.619C11.324 13.619 11.2755 13.5913 11.2755 13.5497C11.2755 13.5151 11.227 13.5012 11.1716 13.522C11.1162 13.5497 11.0677 13.5289 11.0677 13.4873C11.0677 13.4458 11.1093 13.4111 11.1578 13.4111C11.1993 13.4042 11.1716 13.3488 11.0885 13.2795C11.0054 13.2103 10.9569 13.1271 10.9846 13.1063C11.0054 13.0786 10.9776 13.0786 10.9084 13.1063C10.7698 13.1548 10.756 13.2449 10.8807 13.2934C10.9292 13.3142 10.9222 13.3349 10.846 13.3349C10.7837 13.3419 10.7075 13.2795 10.6867 13.2033C10.6659 13.1271 10.6105 13.0648 10.5759 13.0648C10.5343 13.0648 10.5274 13.0301 10.5482 12.9886C10.5967 12.9124 10.3958 12.7253 10.2711 12.7253C10.2364 12.7253 10.2572 12.7531 10.3265 12.7946C10.4512 12.8708 10.4858 12.9955 10.3819 12.9955C10.3473 12.9955 10.2711 12.947 10.2087 12.8916C10.1533 12.8362 10.091 12.7877 10.0771 12.7877C10.0563 12.7877 9.98706 12.9539 9.91779 13.1479C9.77232 13.6051 9.42596 14.381 9.37054 14.381C9.34976 14.381 9.39132 14.2632 9.46752 14.1177C9.68919 13.6813 9.95242 12.7184 10.0286 12.0603C10.3334 9.34487 9.57835 6.86493 8.15135 5.90205L7.81192 5.67345L8.10286 5.33402C8.74709 4.57895 9.55064 4.05249 10.3265 3.88623C10.8737 3.76847 11.0192 3.76154 11.5249 3.85852ZM23.6337 5.83278C23.6614 5.90205 23.6406 5.92976 23.5921 5.91591C23.4882 5.88127 23.4328 5.72194 23.5228 5.72194C23.5575 5.72194 23.6129 5.77043 23.6337 5.83278ZM23.1418 6.53935C23.0171 6.57399 22.9548 6.51857 23.0171 6.42159C23.0448 6.3731 23.0864 6.3731 23.1557 6.43545C23.2319 6.50472 23.2319 6.5255 23.1418 6.53935ZM7.3755 6.69868C8.37302 7.18358 9.13501 9.43493 8.9272 11.2983C8.87178 11.8456 8.87178 11.8456 8.851 11.4715C8.83714 11.2637 8.81636 11.1598 8.80251 11.2429C8.78865 11.333 8.74016 11.4023 8.70553 11.4023C8.6224 11.4023 8.36609 11.139 8.36609 11.049C8.36609 11.0143 8.33146 11.0005 8.29682 11.0213C8.22755 11.0628 7.88812 10.8481 7.65259 10.6056C7.59025 10.5502 7.49326 10.5225 7.43092 10.5433C7.34779 10.5779 7.32008 10.5571 7.34087 10.4671C7.35472 10.3978 7.31316 10.3285 7.25774 10.3147C7.16769 10.287 7.16769 10.2939 7.25774 10.3562C7.34779 10.4255 7.34779 10.4324 7.25774 10.4324C7.09149 10.4324 6.95987 10.3147 7.01529 10.2246C7.04992 10.1692 7.02914 10.1554 6.93909 10.1831C6.74513 10.2385 5.98313 9.98218 5.95542 9.85056C5.94157 9.78821 5.90693 9.73972 5.87922 9.73972C5.85152 9.73972 5.85152 9.88519 5.87922 10.0653C5.90693 10.2523 5.92772 10.7095 5.92772 11.0905L5.92079 11.7832L5.8723 10.952C5.80303 9.82978 5.44974 8.7907 5.01332 8.43048C4.86093 8.30579 4.87478 8.17417 5.05489 7.8763C5.51901 7.10738 6.25329 6.57399 6.86982 6.56014C6.98065 6.55321 7.20925 6.61555 7.3755 6.69868ZM23.0795 6.76102C22.8786 6.84415 22.8162 6.95499 22.9132 7.07275C22.9894 7.16973 22.9686 7.19744 22.74 7.26671C22.6015 7.3152 22.6015 7.3152 22.74 7.21129C22.8578 7.11431 22.8647 7.09353 22.7747 7.03811C22.7193 7.00348 22.65 6.96884 22.6223 6.96884C22.5876 6.96884 22.5669 6.9342 22.5669 6.89264C22.5669 6.84415 22.6292 6.8303 22.7123 6.85108C22.7955 6.87186 22.8647 6.85108 22.8924 6.78873C22.9132 6.73332 22.9964 6.69175 23.0795 6.69868H23.225L23.0795 6.76102ZM23.4674 6.96884C23.4674 7.00348 23.4535 7.03811 23.4397 7.03811C23.4189 7.03811 23.3843 7.00348 23.3635 6.96884C23.3427 6.92728 23.3566 6.89957 23.3912 6.89957C23.4328 6.89957 23.4674 6.92728 23.4674 6.96884ZM22.4283 7.73083C22.4283 7.76547 22.3798 7.80011 22.3175 7.80011C22.2621 7.80011 22.2344 7.76547 22.2551 7.73083C22.2759 7.68927 22.3244 7.66156 22.366 7.66156C22.4006 7.66156 22.4283 7.68927 22.4283 7.73083ZM22.4075 8.04256C22.4075 8.16725 22.2482 8.1811 22.1789 8.06334C22.1512 8.02178 22.1582 8.00792 22.2067 8.03563C22.2482 8.05641 22.2967 8.04949 22.3244 8.00792C22.3868 7.91094 22.4075 7.91787 22.4075 8.04256ZM22.0473 8.07027C22.0681 8.1049 22.0543 8.15339 22.0127 8.1811C21.9781 8.20188 21.9434 8.17417 21.9434 8.11876C21.9434 7.99407 21.985 7.97329 22.0473 8.07027ZM21.3754 8.28501C21.3269 8.35428 21.2784 8.4097 21.2715 8.39585C21.2299 8.35428 21.3338 8.14647 21.3962 8.14647C21.4308 8.14647 21.4239 8.20881 21.3754 8.28501ZM21.6663 8.21574C21.6663 8.25037 21.6525 8.28501 21.6386 8.28501C21.6178 8.28501 21.5832 8.25037 21.5624 8.21574C21.5416 8.17417 21.5555 8.14647 21.5901 8.14647C21.6317 8.14647 21.6663 8.17417 21.6663 8.21574ZM20.8351 8.35428C20.8351 8.43048 20.7935 8.49283 20.7381 8.49283C20.6757 8.49283 20.655 8.55517 20.6688 8.67986C20.6827 8.7907 20.6757 8.81841 20.655 8.74913C20.6342 8.68679 20.5926 8.63137 20.558 8.63137C20.5233 8.63137 20.5441 8.53439 20.5995 8.42355C20.7242 8.18803 20.8351 8.15339 20.8351 8.35428ZM21.3892 8.52054C21.3892 8.54132 21.3615 8.57595 21.32 8.59673C21.2853 8.61752 21.2507 8.60366 21.2507 8.56903C21.2507 8.52746 21.2853 8.49283 21.32 8.49283C21.3615 8.49283 21.3892 8.50668 21.3892 8.52054ZM20.3848 8.63137C20.4056 8.66601 20.3779 8.70064 20.3155 8.70064C20.2532 8.70064 20.2255 8.66601 20.2463 8.63137C20.267 8.58981 20.3017 8.5621 20.3155 8.5621C20.3294 8.5621 20.364 8.58981 20.3848 8.63137ZM19.8999 8.76991C19.8306 8.84611 19.7613 8.8946 19.7406 8.87382C19.6921 8.83226 19.8653 8.63137 19.9553 8.63137C19.9899 8.63137 19.9692 8.69372 19.8999 8.76991ZM19.4704 8.93617C19.602 8.8946 19.6089 8.90153 19.5258 8.99851C19.4773 9.06086 19.4081 9.10242 19.3804 9.08164C19.3526 9.06778 19.2695 9.09549 19.2002 9.15091C19.034 9.2756 18.937 9.28253 18.9855 9.16476C19.0063 9.10935 18.9994 9.02622 18.9647 8.97773C18.937 8.92924 18.9439 8.85304 18.9855 8.80455C19.0409 8.74913 19.0894 8.75606 19.1864 8.85304C19.2764 8.94309 19.3665 8.9708 19.4704 8.93617ZM21.6178 8.74913C21.5693 8.76299 21.4724 8.76299 21.41 8.74913C21.3408 8.72835 21.3823 8.7145 21.4932 8.7145C21.6109 8.7145 21.6594 8.72835 21.6178 8.74913ZM20.1423 8.88075C20.1423 8.93617 20.1146 8.96388 20.0731 8.94309C20.0384 8.92231 20.0038 8.87382 20.0038 8.83226C20.0038 8.79762 20.0384 8.76991 20.0731 8.76991C20.1146 8.76991 20.1423 8.81841 20.1423 8.88075ZM20.558 8.83919C20.558 8.87382 20.5441 8.90846 20.5303 8.90846C20.5095 8.90846 20.4749 8.87382 20.4541 8.83919C20.4333 8.79762 20.4471 8.76991 20.4818 8.76991C20.5233 8.76991 20.558 8.79762 20.558 8.83919ZM19.9692 9.10935C19.9137 9.20633 19.796 9.20633 19.796 9.10935C19.796 9.07471 19.8306 9.06086 19.8653 9.08164C19.9068 9.10242 19.9345 9.08857 19.9345 9.04007C19.9345 8.99158 19.9553 8.9708 19.9761 8.99851C19.9969 9.01929 19.9969 9.06778 19.9692 9.10935ZM20.3502 9.00544C20.3502 9.02622 20.3225 9.06086 20.2809 9.08164C20.2463 9.10242 20.2116 9.08857 20.2116 9.05393C20.2116 9.01237 20.2463 8.97773 20.2809 8.97773C20.3225 8.97773 20.3502 8.99158 20.3502 9.00544ZM20.558 9.11627C20.558 9.15091 20.5303 9.18555 20.4887 9.18555C20.4541 9.18555 20.4194 9.15091 20.4194 9.11627C20.4194 9.07471 20.4541 9.047 20.4887 9.047C20.5303 9.047 20.558 9.07471 20.558 9.11627ZM18.8954 9.26175C18.9509 9.3518 19.0132 9.38644 19.0894 9.35873C19.1795 9.32409 19.1864 9.33794 19.124 9.40029C19.0617 9.46263 19.0063 9.45571 18.8885 9.36565C18.7985 9.30331 18.7569 9.25482 18.7915 9.25482C18.8331 9.25482 18.8123 9.22018 18.7569 9.18555C18.6946 9.14398 18.6876 9.11627 18.7361 9.11627C18.7846 9.11627 18.8539 9.17862 18.8954 9.26175ZM19.3596 9.28945C19.3596 9.34487 19.3319 9.39336 19.2972 9.39336C19.228 9.39336 19.221 9.29638 19.2903 9.23404C19.3526 9.16476 19.3596 9.17169 19.3596 9.28945ZM3.44778 9.2756C3.44778 9.28945 3.34387 9.37258 3.2261 9.46263L2.99751 9.62196L3.16376 9.44185C3.30923 9.28253 3.44778 9.1994 3.44778 9.2756ZM19.6574 9.42107C19.6574 9.44185 19.6297 9.47649 19.5882 9.49727C19.5535 9.51805 19.5189 9.5042 19.5189 9.46956C19.5189 9.428 19.5535 9.39336 19.5882 9.39336C19.6297 9.39336 19.6574 9.40722 19.6574 9.42107ZM18.8747 9.63581C18.847 9.69123 18.7915 9.73972 18.743 9.7328C18.6738 9.7328 18.6738 9.71894 18.743 9.69123C18.7846 9.67738 18.8262 9.60811 18.8262 9.54576C18.8262 9.49034 18.847 9.45571 18.8677 9.48342C18.8954 9.5042 18.8954 9.57347 18.8747 9.63581ZM17.8633 10.1069C17.794 10.1692 17.7871 10.1623 17.8287 10.0653C17.8494 9.99603 17.891 9.96139 17.9118 9.98218C17.9326 10.003 17.9118 10.0584 17.8633 10.1069ZM17.5724 10.1276C17.51 10.2038 17.4684 10.2038 17.3992 10.1484C17.323 10.0861 17.3022 10.093 17.3022 10.1554C17.3022 10.2108 17.2814 10.2316 17.2606 10.2038C17.1844 10.1276 17.2883 10.0514 17.4684 10.0445C17.6208 10.0307 17.6416 10.0514 17.5724 10.1276ZM17.032 10.4186C16.9905 10.4324 16.9697 10.474 16.9905 10.5086C17.0182 10.5433 16.9835 10.5502 16.9281 10.5294C16.7896 10.474 16.7896 10.4671 16.935 10.3216C17.0251 10.2316 17.0597 10.2246 17.0874 10.3008C17.1013 10.3493 17.0805 10.4047 17.032 10.4186ZM17.9533 10.3424C17.9741 10.3909 17.9603 10.4463 17.9187 10.4671C17.8841 10.4948 17.8356 10.4671 17.8217 10.4117C17.7802 10.3078 17.3715 10.3355 17.3715 10.4394C17.3715 10.474 17.323 10.4809 17.2606 10.4532C17.1567 10.4186 17.1567 10.3978 17.2468 10.3355C17.3922 10.2316 17.9118 10.2316 17.9533 10.3424ZM2.1039 10.6264C2.29093 10.7511 2.42948 11.3607 2.29786 11.4923C2.23551 11.5547 1.1618 11.0836 1.1618 10.9935C1.16872 10.7303 1.86144 10.4602 2.1039 10.6264ZM17.2329 10.6403C17.2329 10.6749 17.2191 10.7095 17.2052 10.7095C17.1844 10.7095 17.1498 10.6749 17.129 10.6403C17.1082 10.5987 17.1221 10.571 17.1567 10.571C17.1983 10.571 17.2329 10.5987 17.2329 10.6403ZM17.0805 10.8134C17.0597 10.8342 17.0182 10.7996 16.9974 10.7303C16.9558 10.6333 16.9628 10.6264 17.032 10.6888C17.0805 10.7372 17.1013 10.7927 17.0805 10.8134ZM35.5069 11.6447C35.4168 11.7763 35.3199 11.8872 35.2852 11.8872C35.2298 11.8872 35.2852 11.7902 35.5138 11.52C35.6731 11.3261 35.6731 11.3884 35.5069 11.6447ZM8.83022 12.2127C8.80943 12.282 8.79558 12.2266 8.79558 12.095C8.79558 11.9634 8.80943 11.9079 8.83022 11.9703C8.84407 12.0396 8.84407 12.1504 8.83022 12.2127ZM35.1051 12.2959C35.0705 12.3721 35.0012 12.4552 34.9596 12.4829C34.9181 12.5037 34.9389 12.4483 35.0012 12.3444C35.1397 12.1365 35.209 12.1019 35.1051 12.2959ZM8.76094 12.5937C8.74016 12.6492 8.71938 12.6284 8.71938 12.5522C8.71245 12.476 8.73323 12.4344 8.75402 12.4621C8.7748 12.4829 8.78172 12.5452 8.76094 12.5937ZM14.6491 13.9792C14.6283 14.0346 14.6075 14.0138 14.6075 13.9376C14.6006 13.8614 14.6214 13.8198 14.6421 13.8476C14.6629 13.8683 14.6699 13.9307 14.6491 13.9792ZM12.5917 14.3186C12.5917 14.3602 12.564 14.3671 12.5224 14.3463C12.4878 14.3255 12.4531 14.2701 12.4531 14.2355C12.4531 14.1939 12.4878 14.187 12.5224 14.2078C12.564 14.2286 12.5917 14.284 12.5917 14.3186ZM15.508 15.33C15.4249 15.4685 15.4111 15.427 15.4734 15.2469C15.5011 15.1845 15.5358 15.1499 15.5496 15.1707C15.5704 15.1845 15.5496 15.2607 15.508 15.33ZM15.0855 16.182C15.0439 16.2582 14.9954 16.3206 14.9746 16.3206C14.9608 16.3206 14.9746 16.2582 15.0162 16.182C15.0578 16.1058 15.1063 16.0435 15.127 16.0435C15.1409 16.0435 15.127 16.1058 15.0855 16.182Z" fill="#D33E00"/>
<path d="M19.5738 5.14062C19.9645 5.53257 20.6482 5.74592 21.3062 5.45508H21.3072C21.5334 5.35752 21.7075 5.14003 21.7925 4.89453C21.8669 4.67983 21.872 4.44702 21.7886 4.25781L21.7466 4.17871C21.5517 3.8408 21.1594 3.61654 20.7408 3.53809C20.3222 3.45967 19.8838 3.52792 19.5963 3.7666C19.3411 3.97851 19.2395 4.22463 19.2486 4.46484C19.2578 4.70594 19.3786 4.94477 19.5738 5.14062Z" fill="white" stroke="#D33E00" stroke-width="0.051954"/>
<path d="M20.5877 7.46094C21.3466 7.47715 22.0776 7.41565 22.5779 7.27246C23.0448 7.12884 23.5466 6.89487 23.9686 6.63965C24.3913 6.38394 24.7304 6.10929 24.8748 5.88379C24.9578 5.74964 25.0189 5.65149 25.0545 5.57812C25.0722 5.54161 25.0825 5.51229 25.0867 5.48926C25.0908 5.46679 25.0889 5.45162 25.0828 5.44043C25.0766 5.429 25.0643 5.41788 25.0418 5.40723C25.019 5.39648 24.987 5.38732 24.9451 5.37891L24.5809 5.33105C24.424 5.30934 24.2491 5.28079 24.0965 5.25C24.0207 5.2347 23.9496 5.2189 23.8885 5.20312L23.742 5.15723C23.6638 5.13123 23.5571 5.1425 23.4295 5.19727C23.3026 5.25177 23.1576 5.34772 23.0027 5.4834C22.5016 5.92159 21.7345 6.15747 20.91 6.18652C20.0849 6.21553 19.1978 6.03849 18.4549 5.64648C17.6069 5.20087 17.008 5.11783 16.4451 5.3584C16.2379 5.45325 16.1534 5.57941 16.159 5.71973C16.1648 5.86397 16.2655 6.03281 16.4539 6.20996C16.8298 6.56319 17.5379 6.93356 18.4393 7.18555C19.0448 7.35081 19.8289 7.44473 20.5877 7.46094Z" fill="white" stroke="#D33E00" stroke-width="0.051954"/>
<path d="M17.5086 19.5293L17.6639 19.5117C18.9619 19.3096 20.2128 18.6026 20.8611 17.7246L20.9822 17.5469C21.1208 17.3168 21.2232 17.1747 21.3328 17.1006C21.4457 17.0244 21.5631 17.0218 21.7225 17.0586C25.0012 17.8511 27.6625 17.0422 28.784 14.9355C29.0334 14.4639 29.1673 13.8184 29.1824 13.1553C29.1956 12.5754 29.1178 11.9839 28.9481 11.4854L28.8699 11.2773C28.197 9.64366 26.331 8.53616 24.2713 8.53613C23.7613 8.53613 23.1117 8.63316 22.5897 8.7627C22.3286 8.82747 22.1006 8.90046 21.9383 8.97266C21.857 9.00881 21.7936 9.04453 21.7508 9.07812C21.7065 9.11289 21.6902 9.14057 21.6902 9.16016C21.6902 9.20863 21.6779 9.28223 21.6561 9.37207C21.6341 9.46262 21.6026 9.57211 21.5643 9.69336C21.4875 9.93598 21.3822 10.2274 21.2713 10.5137C21.1605 10.7998 21.0431 11.0811 20.9402 11.3037C20.8889 11.4149 20.8413 11.5123 20.7996 11.5879C20.779 11.6253 20.759 11.6584 20.741 11.6855L20.6922 11.748L20.6912 11.749C20.5609 11.8645 20.4503 11.9385 20.3582 11.9609C20.3114 11.9723 20.2674 11.9709 20.2283 11.9531C20.1893 11.9352 20.1578 11.9021 20.1326 11.8574C20.0829 11.769 20.0537 11.6268 20.0399 11.4307C20.0259 11.2335 20.0268 10.978 20.0399 10.6602V10.6592C20.0747 10.0586 20.0872 9.75327 20.0213 9.51855C19.9559 9.2859 19.8133 9.12075 19.5262 8.80273C19.3621 8.63063 19.1583 8.4507 18.9637 8.2998C18.8175 8.18653 18.6771 8.0903 18.5623 8.02539L18.4568 7.97168C18.096 7.82915 17.513 7.74245 16.9236 7.72266C16.3343 7.70289 15.7431 7.74992 15.3651 7.87109H15.3641C14.6554 8.08645 14.1174 8.43771 13.7957 8.85449C13.4745 9.27072 13.3689 9.75281 13.5223 10.2344C13.6676 10.6746 13.9483 10.9453 14.3231 11.042C14.6992 11.1389 15.1745 11.0621 15.7098 10.7969C16.0181 10.6404 16.1979 10.4288 16.2479 10.1953C16.2977 9.96201 16.2193 9.69936 15.9969 9.43652C15.9366 9.365 15.8898 9.30851 15.8631 9.2666C15.85 9.24596 15.8397 9.22541 15.8367 9.20703C15.8352 9.19749 15.8358 9.18686 15.8397 9.17676C15.8437 9.16642 15.8504 9.15803 15.8592 9.15234C15.8754 9.14185 15.8981 9.13898 15.9217 9.13867C15.9465 9.13837 15.9779 9.14125 16.0154 9.14648L16.3348 9.20703C17.189 9.36634 17.649 9.61362 17.95 10.084L17.951 10.085C18.1422 10.3955 18.2302 10.6347 18.1844 10.8457C18.1383 11.0571 17.9598 11.2319 17.6463 11.4199C17.4294 11.5496 17.2735 11.6271 17.1404 11.6533C17.0054 11.6799 16.8954 11.6529 16.7703 11.5791C16.6869 11.5375 16.557 11.5034 16.4051 11.4775C16.2538 11.4518 16.0821 11.435 15.9158 11.4287C15.7495 11.4224 15.5889 11.4261 15.4598 11.4414C15.3955 11.4491 15.3395 11.4596 15.2947 11.4727C15.2492 11.486 15.2173 11.5018 15.2 11.5176H15.201L15.1971 11.5205L15.1834 11.5322C15.1724 11.5476 15.1691 11.5726 15.1795 11.6084C15.1863 11.6316 15.1987 11.6575 15.2166 11.6846L15.2879 11.7686C15.3269 11.8082 15.3566 11.8403 15.3729 11.8652C15.3808 11.8774 15.3867 11.8912 15.3885 11.9043C15.3894 11.9112 15.3896 11.919 15.3865 11.9268C15.3833 11.9349 15.3774 11.9409 15.3709 11.9453C15.359 11.9532 15.3441 11.9549 15.3309 11.9551C15.3167 11.9552 15.2995 11.9535 15.2801 11.9502C15.2412 11.9436 15.189 11.9311 15.1238 11.9131C15.0811 11.9013 15.0461 11.8936 15.0193 11.8877C15.0242 11.8911 15.0294 11.8947 15.035 11.8984C15.0759 11.926 15.1356 11.9629 15.2137 12.0098L15.2147 12.0107C15.3738 12.1136 15.474 12.215 15.533 12.3809C15.5912 12.5444 15.6082 12.7691 15.6082 13.1152C15.6082 13.3783 15.6199 13.5809 15.66 13.7393C15.6998 13.8966 15.7679 14.0096 15.8826 14.0938C15.9984 14.1785 16.1641 14.2358 16.4012 14.2783C16.6381 14.3208 16.9438 14.3488 17.3387 14.374C17.9023 14.4028 18.2196 14.4275 18.4451 14.501C18.6161 14.5567 18.7342 14.64 18.867 14.7695L19.0076 14.916C19.2796 15.2147 19.4144 15.4985 19.41 15.8086C19.4055 16.1175 19.2633 16.4478 18.993 16.8389H18.992C18.7307 17.2151 18.511 17.4508 18.2381 17.5908C17.9653 17.7308 17.6429 17.7734 17.1815 17.7734C16.2563 17.7734 15.4157 17.5278 14.8192 17.0615C14.3832 16.7356 14.114 16.4503 13.9529 16.0654C13.7924 15.6816 13.7409 15.2009 13.7322 14.4863C13.7235 13.8003 13.6755 13.3575 13.5584 13.0869C13.5004 12.9529 13.4256 12.8629 13.3318 12.8057C13.2377 12.7483 13.121 12.7227 12.9764 12.7227C12.8199 12.7227 12.6556 12.799 12.4969 12.9365C12.3384 13.0739 12.187 13.2702 12.0555 13.5029C11.7926 13.9684 11.6122 14.5772 11.6121 15.1494C11.6121 15.842 11.9431 16.6599 12.4539 17.3809C12.9646 18.1016 13.6524 18.7218 14.3592 19.0225C14.7735 19.1945 15.4054 19.3458 16.032 19.4395C16.5807 19.5214 17.1225 19.5595 17.5086 19.5293ZM24.6434 15.7598C24.0953 15.8758 23.5218 15.8832 23.0477 15.752C22.6276 15.6356 22.1692 15.4109 21.7723 15.1465C21.3757 14.8823 21.0378 14.5764 20.8611 14.2979H20.8602C20.7996 14.2008 20.7532 14.1227 20.7254 14.0576C20.6976 13.9924 20.6872 13.9353 20.7039 13.8809C20.7205 13.8272 20.7617 13.781 20.825 13.7334C20.8887 13.6856 20.9787 13.634 21.0955 13.5693C21.3586 13.4092 21.9855 13.1334 22.4901 12.96V12.9609C22.7409 12.8675 22.9873 12.7561 23.1815 12.6504C23.2786 12.5975 23.3621 12.5457 23.4266 12.499C23.4917 12.4519 23.5346 12.4111 23.5535 12.3799L23.5545 12.3789C23.8253 11.9713 23.74 11.4677 23.3875 11.2021C23.2784 11.1224 23.1943 11.0504 23.1375 10.9834C23.0808 10.9164 23.0492 10.8511 23.0467 10.7861C23.0443 10.7207 23.0718 10.6602 23.1238 10.6016C23.1757 10.5431 23.2529 10.4845 23.3533 10.4229C23.586 10.2742 23.949 10.2167 24.3465 10.2402C24.6952 10.2609 25.0742 10.3439 25.4217 10.4863L25.5682 10.5508C27.3241 11.3675 27.6036 13.8451 26.0955 15.1123H26.0945C25.717 15.4185 25.1914 15.6437 24.6434 15.7598Z" fill="white" stroke="#D33E00" stroke-width="0.051954"/>
</svg>
